<svg width="40" height="40" viewBox="0 0 40 40" fill="none" xmlns="http://www.w3.org/2000/svg">
<path d="M8.33331 25H6.66665C5.78259 25 4.93474 24.6488 4.30962 24.0237C3.6845 23.3986 3.33331 22.5507 3.33331 21.6667V6.66666C3.33331 5.78261 3.6845 4.93476 4.30962 4.30964C4.93474 3.68452 5.78259 3.33333 6.66665 3.33333H21.6666C22.5507 3.33333 23.3985 3.68452 24.0237 4.30964C24.6488 4.93476 25 5.78261 25 6.66666V8.33333M18.3333 15H33.3333C35.1743 15 36.6666 16.4924 36.6666 18.3333V33.3333C36.6666 35.1743 35.1743 36.6667 33.3333 36.6667H18.3333C16.4924 36.6667 15 35.1743 15 33.3333V18.3333C15 16.4924 16.4924 15 18.3333 15Z" stroke="#1E1E1E" stroke-width="3.5" stroke-linecap="round" stroke-linejoin="round"/>
</svg>
