<svg width="49" height="49" viewBox="0 0 49 49" fill="none" xmlns="http://www.w3.org/2000/svg">
<path d="M14.2917 22.4583V14.2917C14.2917 11.5842 15.3672 8.98772 17.2816 7.07329C19.1961 5.15885 21.7926 4.08333 24.5 4.08333C27.2074 4.08333 29.8039 5.15885 31.7184 7.07329C33.6328 8.98772 34.7083 11.5842 34.7083 14.2917V22.4583M10.2083 22.4583H38.7917C41.0468 22.4583 42.875 24.2865 42.875 26.5417V40.8333C42.875 43.0885 41.0468 44.9167 38.7917 44.9167H10.2083C7.95317 44.9167 6.125 43.0885 6.125 40.8333V26.5417C6.125 24.2865 7.95317 22.4583 10.2083 22.4583Z" stroke="#1E1E1E" stroke-width="3" stroke-linecap="round" stroke-linejoin="round"/>
</svg>
